<svg width="105" height="39" viewBox="0 0 105 39" fill="none" xmlns="http://www.w3.org/2000/svg">
<path d="M104.147 3.17826C104.147 9.07175 76.0869 15.5769 73.9622 15.5769C72.771 15.5769 71.4194 15.2989 71.4194 14.1869C71.4194 13.8154 71.8429 13.2784 72.5861 12.6311L70.6156 9.08795C70.3489 8.60821 70.5603 8.00043 71.065 7.7958L71.4035 7.65858C72.0171 7.40986 72.7075 7.44694 73.2916 7.75995L76.8673 9.67669C78.2596 8.84057 79.8389 7.96514 81.5035 7.10325L74.5352 2.52578C73.9839 2.16361 73.9898 1.34452 74.5462 0.990587L75.1163 0.62797C76.065 0.0244811 77.2183 -0.153765 78.3016 0.135538L89.8939 3.23153C93.5084 1.77895 96.7762 0.787513 98.7105 0.787513C99.2271 0.787513 99.7444 0.801374 100.244 0.837502L96.7429 2.43766L96.6591 3.62994L102.063 1.11473C103.358 1.42752 104.147 2.0113 104.147 3.17826ZM90.0442 13.3517L94.3682 18.3252C94.6317 18.6283 95.0609 18.7196 95.4224 18.5494L96.0015 18.2768C97.0576 17.7798 97.6796 16.6529 97.5443 15.4818L97.003 10.7954C96.9694 10.5055 96.6788 10.3219 96.4068 10.4189L90.2323 12.6212C89.9318 12.7285 89.8336 13.1095 90.0442 13.3517Z" fill="#FCF5ED"/>
<path d="M18.6679 4.88516C18.0969 4.79844 17.4974 4.58887 16.8693 4.25644V3.43261H22.2651V4.25644C22.0224 4.41543 21.7655 4.54551 21.4943 4.64668C21.2231 4.74786 20.959 4.82735 20.702 4.88516L16.9122 18.6085L14.6853 18.8687L11.3665 8.37562L8.13332 18.6085L5.88509 18.8687L1.70979 4.88516C1.41002 4.82735 1.13167 4.74786 0.874729 4.64668C0.617788 4.53106 0.375121 4.40098 0.146729 4.25644V3.43261H7.08415V4.25644C6.84148 4.38652 6.56313 4.50938 6.24909 4.625C5.94932 4.72618 5.63528 4.8129 5.30697 4.88516L7.29826 12.5382L7.74791 15.3565H7.79074L8.54015 12.4298L11.3879 3.43261H12.6512L15.6917 12.3214L16.4197 15.1397H16.4625L16.955 12.278L18.6679 4.88516Z" fill="#FCF5ED"/>
<path d="M21.2813 13.1886C21.2813 12.3069 21.4098 11.5192 21.6667 10.8254C21.938 10.1172 22.3162 9.51743 22.8016 9.02602C23.3012 8.53461 23.9007 8.15882 24.6002 7.89867C25.2996 7.63851 26.0918 7.50843 26.9769 7.50843C27.9761 7.50843 28.8326 7.65296 29.5463 7.94203C30.2743 8.21664 30.8667 8.60687 31.3235 9.11274C31.7945 9.60415 32.1371 10.204 32.3512 10.9122C32.5653 11.6059 32.6724 12.3647 32.6724 13.1886C32.6724 14.0702 32.5439 14.8651 32.287 15.5733C32.03 16.2671 31.6518 16.8597 31.1522 17.3511C30.6668 17.8425 30.0673 18.2183 29.3536 18.4784C28.6541 18.7386 27.8619 18.8687 26.9769 18.8687C26.0062 18.8687 25.164 18.7314 24.4503 18.4568C23.7365 18.1677 23.1442 17.7775 22.6731 17.2861C22.202 16.7802 21.8523 16.1804 21.6239 15.4866C21.3955 14.7784 21.2813 14.0124 21.2813 13.1886ZM24.6002 13.1886C24.6002 13.839 24.6358 14.4388 24.7072 14.988C24.7929 15.5228 24.9356 15.978 25.1355 16.3538C25.3353 16.7296 25.6065 17.0259 25.9491 17.2427C26.2917 17.445 26.7342 17.5462 27.2766 17.5462C27.5907 17.5462 27.8762 17.4739 28.1331 17.3294C28.39 17.1704 28.6113 16.9247 28.7969 16.5923C28.9824 16.2454 29.118 15.7974 29.2037 15.2481C29.3036 14.6845 29.3536 13.9979 29.3536 13.1886C29.3536 12.5237 29.3107 11.9239 29.2251 11.3891C29.1537 10.8544 29.0181 10.3991 28.8183 10.0233C28.6327 9.64751 28.3758 9.35844 28.0475 9.1561C27.7191 8.9393 27.3052 8.8309 26.8056 8.8309C26.4344 8.8309 26.1133 8.91039 25.842 9.06938C25.5708 9.21391 25.3424 9.45962 25.1569 9.80649C24.9713 10.1389 24.8285 10.587 24.7286 11.1506C24.643 11.6999 24.6002 12.3792 24.6002 13.1886Z" fill="#FCF5ED"/>
<path d="M39.5402 10.2618C39.3689 10.3485 39.1691 10.493 38.9407 10.6954C38.7123 10.8977 38.5053 11.2301 38.3198 11.6926V17.2427C38.6052 17.2716 38.8907 17.3294 39.1762 17.4161C39.4617 17.4884 39.7472 17.604 40.0327 17.763V18.6085H33.8233V17.763C34.0802 17.6185 34.3229 17.5101 34.5513 17.4378C34.7797 17.3655 35.0081 17.3005 35.2365 17.2427V9.30786L33.8233 9.13442V8.2889C34.0517 8.18773 34.33 8.09378 34.6583 8.00706C35.0009 7.92035 35.3507 7.84808 35.7075 7.79027C36.0644 7.718 36.407 7.66019 36.7353 7.61683C37.0779 7.57347 37.3634 7.53733 37.5918 7.50843H38.3198V10.3919H38.4054C38.5196 10.0739 38.6838 9.74146 38.8979 9.39458C39.1263 9.0477 39.3903 8.72973 39.6901 8.44066C39.9899 8.1516 40.3182 7.92034 40.6751 7.74691C41.0319 7.57347 41.4031 7.49397 41.7885 7.50843C41.9455 7.71077 42.0811 7.99984 42.1953 8.37562C42.3095 8.73695 42.4023 9.08383 42.4736 9.41626V10.2618H39.5402Z" fill="#FCF5ED"/>
<path d="M49.1255 18.6085H43.2159V17.763C43.6869 17.5318 44.158 17.3583 44.629 17.2427V4.10469L43.0017 3.93125V3.08573C43.1873 2.99901 43.4443 2.91229 43.7726 2.82557C44.1009 2.73885 44.4506 2.66659 44.8217 2.60877C45.2072 2.53651 45.5854 2.4787 45.9566 2.43534C46.342 2.37752 46.6846 2.33416 46.9843 2.30526H47.7123V17.2427C48.1834 17.3583 48.6545 17.5318 49.1255 17.763V18.6085Z" fill="#FCF5ED"/>
<path d="M57.6267 16.4622C57.5553 16.7802 57.4268 17.0837 57.2413 17.3728C57.0557 17.6618 56.8344 17.922 56.5775 18.1532C56.3205 18.37 56.0279 18.5435 55.6996 18.6736C55.3713 18.8036 55.0216 18.8687 54.6504 18.8687C53.2372 18.8687 52.1595 18.4206 51.4172 17.5245C50.6892 16.614 50.3252 15.2265 50.3252 13.362C50.3252 12.4081 50.4537 11.577 50.7107 10.8688C50.9676 10.1461 51.3245 9.53911 51.7812 9.0477C52.2523 8.55629 52.8161 8.18773 53.4728 7.94203C54.1294 7.69632 54.8574 7.57347 55.6568 7.57347C55.9137 7.57347 56.1278 7.58069 56.2991 7.59515C56.4847 7.6096 56.6489 7.63128 56.7916 7.66019C56.9486 7.67464 57.0914 7.71077 57.2198 7.76859C57.3626 7.81195 57.5196 7.86253 57.6909 7.92035V4.10469L56.0636 3.93125V3.08573C56.2634 2.99901 56.5347 2.91952 56.8772 2.84725C57.2341 2.77499 57.6052 2.70995 57.9907 2.65213C58.3761 2.57987 58.7543 2.51483 59.1255 2.45702C59.4966 2.3992 59.8035 2.34862 60.0462 2.30526H60.7742V17.0693L62.1874 17.2427V18.0015C61.9875 18.1027 61.7306 18.1966 61.4165 18.2833C61.1025 18.37 60.7742 18.4495 60.4316 18.5218C60.089 18.5941 59.7536 18.6519 59.4253 18.6952C59.1112 18.7531 58.8471 18.7964 58.633 18.8253H57.905L57.7123 16.4622H57.6267ZM55.6782 17.1343C56.1778 17.1343 56.5989 16.9753 56.9415 16.6573C57.2841 16.3394 57.5339 15.7974 57.6909 15.0313V9.19946C57.5053 9.08383 57.2698 8.98989 56.9843 8.91762C56.7131 8.84535 56.3705 8.80922 55.9565 8.80922C55.1286 8.80922 54.5362 9.19223 54.1794 9.95825C53.8225 10.7098 53.6441 11.8083 53.6441 13.2536C53.6441 14.4243 53.8011 15.3638 54.1151 16.072C54.4292 16.7802 54.9502 17.1343 55.6782 17.1343Z" fill="#FCF5ED"/>
<path d="M0.810494 33.3199C0.810494 32.4382 0.938965 31.6505 1.19591 30.9568C1.46712 30.2486 1.8454 29.6487 2.33073 29.1573C2.83034 28.6659 3.42987 28.2901 4.12932 28.03C4.82877 27.7698 5.62101 27.6397 6.50603 27.6397C7.50525 27.6397 8.36172 27.7843 9.07544 28.0733C9.80344 28.348 10.3958 28.7382 10.8526 29.2441C11.3237 29.7355 11.6663 30.3353 11.8804 31.0435C12.0945 31.7372 12.2016 32.496 12.2016 33.3199C12.2016 34.2015 12.0731 34.9964 11.8162 35.7047C11.5592 36.3984 11.1809 36.991 10.6813 37.4824C10.196 37.9738 9.59646 38.3496 8.88274 38.6098C8.18328 38.8699 7.39105 39 6.50603 39C5.53536 39 4.69316 38.8627 3.97944 38.5881C3.26571 38.299 2.67332 37.9088 2.20226 37.4174C1.7312 36.9115 1.38147 36.3117 1.15308 35.6179C0.92469 34.9097 0.810494 34.1437 0.810494 33.3199ZM4.12932 33.3199C4.12932 33.9703 4.16501 34.5701 4.23638 35.1193C4.32203 35.6541 4.46477 36.1093 4.66462 36.4851C4.86446 36.8609 5.13567 37.1572 5.47826 37.374C5.82085 37.5764 6.26336 37.6775 6.80579 37.6775C7.11983 37.6775 7.40532 37.6053 7.66226 37.4607C7.91921 37.3017 8.14046 37.056 8.32603 36.7236C8.5116 36.3767 8.64721 35.9287 8.73285 35.3795C8.83278 34.8158 8.88274 34.1293 8.88274 33.3199C8.88274 32.655 8.83991 32.0552 8.75427 31.5204C8.68289 30.9857 8.54729 30.5304 8.34744 30.1546C8.16187 29.7788 7.90493 29.4898 7.57662 29.2874C7.2483 29.0706 6.83434 28.9622 6.33473 28.9622C5.9636 28.9622 5.64242 29.0417 5.3712 29.2007C5.09999 29.3452 4.8716 29.5909 4.68603 29.9378C4.50046 30.2702 4.35771 30.7183 4.25779 31.282C4.17214 31.8312 4.12932 32.5105 4.12932 33.3199Z" fill="#FCF5ED"/>
<path d="M19.7332 22.4366C20.3184 22.4366 20.8394 22.4944 21.2962 22.61C21.7673 22.7112 22.1241 22.8124 22.3668 22.9135C22.324 23.3905 22.2312 23.8819 22.0885 24.3878C21.9457 24.8936 21.8172 25.3128 21.703 25.6452H20.975L20.0329 23.5856C19.6618 23.5856 19.3477 23.629 19.0908 23.7157C18.8481 23.788 18.6483 23.9397 18.4913 24.171C18.3485 24.4022 18.2415 24.7346 18.1701 25.1682C18.0987 25.5874 18.063 26.1366 18.063 26.8159V27.8999H20.3327V29.2657H18.063V37.374C18.8053 37.4607 19.4905 37.6342 20.1186 37.8943V38.7398H13.5666V37.8943C14.0091 37.6342 14.4801 37.4607 14.9797 37.374V29.2657H13.3524V28.4202C13.8521 28.1022 14.3945 27.8638 14.9797 27.7048V26.946C14.9797 26.0499 15.1011 25.3128 15.3437 24.7346C15.6007 24.1421 15.9433 23.6796 16.3715 23.3471C16.7997 23.0002 17.2994 22.7618 17.8703 22.6317C18.4556 22.5016 19.0765 22.4366 19.7332 22.4366Z" fill="#FCF5ED"/>
<path d="M26.7691 28.4202C27.3115 28.0733 27.8825 27.8276 28.482 27.6831V25.927C28.5677 25.8403 28.7104 25.7608 28.9103 25.6886C29.1244 25.6018 29.3457 25.5296 29.574 25.4718C29.8167 25.3995 30.0522 25.3344 30.2806 25.2766C30.509 25.2188 30.6946 25.1755 30.8373 25.1466H31.5653V27.8999H34.3917V29.2657H31.5653V34.8808C31.5653 35.7769 31.6724 36.3984 31.8865 36.7453C32.1149 37.0922 32.486 37.2656 32.9999 37.2656C33.2569 37.2656 33.5424 37.2512 33.8564 37.2223C34.1847 37.1789 34.4845 37.1066 34.7557 37.0055L34.9056 37.7209C34.7771 37.851 34.5844 37.9883 34.3275 38.1328C34.0848 38.2773 33.7993 38.4146 33.471 38.5447C33.157 38.6748 32.8072 38.7832 32.4218 38.8699C32.0507 38.9566 31.6581 39 31.2442 39C30.3163 39 29.624 38.7543 29.1672 38.2629C28.7104 37.7715 28.482 36.9765 28.482 35.8781V29.2657H26.7691V28.4202Z" fill="#FCF5ED"/>
<path d="M41.3594 30.3931C41.1881 30.4798 40.9883 30.6243 40.7599 30.8267C40.5315 31.029 40.3245 31.3615 40.1389 31.824V37.374C40.4244 37.4029 40.7099 37.4607 40.9954 37.5474C41.2809 37.6197 41.5664 37.7353 41.8519 37.8943V38.7398H35.6424V37.8943C35.8994 37.7498 36.1421 37.6414 36.3704 37.5691C36.5988 37.4969 36.8272 37.4318 37.0556 37.374V29.4392L35.6424 29.2657V28.4202C35.8708 28.319 36.1492 28.2251 36.4775 28.1384C36.8201 28.0517 37.1698 27.9794 37.5267 27.9216C37.8835 27.8493 38.2261 27.7915 38.5545 27.7481C38.897 27.7048 39.1825 27.6686 39.4109 27.6397H40.1389V30.5232H40.2246C40.3388 30.2052 40.5029 29.8728 40.717 29.5259C40.9454 29.179 41.2095 28.861 41.5093 28.572C41.809 28.2829 42.1374 28.0517 42.4942 27.8782C42.8511 27.7048 43.2222 27.6253 43.6076 27.6397C43.7647 27.8421 43.9003 28.1312 44.0145 28.5069C44.1287 28.8683 44.2214 29.2151 44.2928 29.5476V30.3931H41.3594Z" fill="#FCF5ED"/>
<path d="M54.4348 35.5963C54.4348 35.9142 54.4348 36.1888 54.4348 36.4201C54.4491 36.6513 54.4705 36.8971 54.499 37.1572L55.9765 37.374V38.1328C55.8052 38.2195 55.5696 38.3062 55.2699 38.393C54.9844 38.4797 54.6775 38.5664 54.3492 38.6531C54.0351 38.7254 53.7211 38.7832 53.407 38.8266C53.093 38.8844 52.8146 38.9277 52.572 38.9566H51.844C51.7012 38.6242 51.6156 38.2918 51.587 37.9594C51.5585 37.6269 51.5371 37.2223 51.5228 36.7453H51.4157C51.3444 37.0344 51.223 37.3162 51.0517 37.5908C50.8804 37.851 50.6592 38.0894 50.388 38.3062C50.131 38.5086 49.8241 38.6748 49.4673 38.8049C49.1104 38.935 48.7107 39 48.2682 39C47.7971 39 47.3618 38.9277 46.9621 38.7832C46.5624 38.6387 46.2127 38.4363 45.9129 38.1762C45.6131 37.916 45.3776 37.6053 45.2063 37.2439C45.035 36.8681 44.9494 36.449 44.9494 35.9865C44.9494 35.3361 45.0707 34.8013 45.3134 34.3822C45.556 33.963 45.9343 33.6234 46.4482 33.3632C46.9764 33.0886 47.6473 32.8863 48.4609 32.7562C49.2888 32.6261 50.288 32.5322 51.4586 32.4744C51.5728 31.2314 51.5228 30.3208 51.3087 29.7427C51.0946 29.1646 50.6306 28.8755 49.9169 28.8755C49.4744 28.8755 49.0676 28.9478 48.6964 29.0923L47.6901 31.6939H46.748C46.6338 31.5204 46.5196 31.3253 46.4054 31.1085C46.3055 30.8773 46.2055 30.6388 46.1056 30.3931C46.02 30.1329 45.9415 29.8728 45.8701 29.6126C45.813 29.3525 45.7702 29.0995 45.7416 28.8538C46.284 28.478 46.9835 28.1817 47.84 27.9649C48.6964 27.7481 49.6029 27.6397 50.5593 27.6397C51.3729 27.6397 52.0367 27.7337 52.5506 27.9216C53.0644 28.095 53.4641 28.3407 53.7496 28.6587C54.0494 28.9622 54.2564 29.3235 54.3706 29.7427C54.4848 30.1618 54.5419 30.6099 54.5419 31.0868C54.5419 31.954 54.5205 32.7417 54.4776 33.45C54.4491 34.1437 54.4348 34.8591 54.4348 35.5963ZM49.6171 37.2656C49.9169 37.2656 50.1739 37.2078 50.388 37.0922C50.6021 36.9765 50.7805 36.8392 50.9233 36.6803C51.0803 36.5213 51.1945 36.3478 51.2659 36.1599C51.3515 35.972 51.4157 35.8058 51.4586 35.6613V33.4933C50.7877 33.5078 50.2381 33.5511 49.8099 33.6234C49.3816 33.6957 49.0462 33.8185 48.8035 33.992C48.5608 34.1509 48.3895 34.3605 48.2896 34.6207C48.204 34.8664 48.1611 35.1699 48.1611 35.5312C48.1611 36.0804 48.2896 36.5068 48.5466 36.8103C48.8035 37.1138 49.1604 37.2656 49.6171 37.2656Z" fill="#FCF5ED"/>
<path d="M61.493 39L57.2106 29.2657C56.7967 29.1212 56.4184 28.9478 56.0758 28.7454V27.8999H61.7071V28.7237C61.5215 28.8249 61.3288 28.9261 61.129 29.0273C60.9434 29.114 60.7293 29.1935 60.4866 29.2657L62.4779 34.8158L62.8848 36.2683H62.9276L63.2702 34.7941L65.0902 29.2657C64.8618 29.2079 64.6477 29.1357 64.4478 29.0489C64.2623 28.9622 64.0838 28.861 63.9125 28.7454V27.8999H68.045V28.7454C67.9023 28.8466 67.7238 28.9405 67.5097 29.0273C67.3099 29.114 67.0815 29.1935 66.8245 29.2657L63.0775 38.7398L61.493 39Z" fill="#FCF5ED"/>
<path d="M77.9247 36.9187C77.8105 37.1644 77.6249 37.4174 77.368 37.6775C77.1253 37.9232 76.8184 38.1473 76.4473 38.3496C76.0904 38.5375 75.6693 38.6893 75.184 38.8049C74.7129 38.935 74.1991 39 73.6423 39C72.7573 39 71.9722 38.8699 71.287 38.6098C70.6019 38.3352 70.0309 37.9521 69.5741 37.4607C69.1173 36.9549 68.7676 36.3551 68.5249 35.6613C68.2965 34.9675 68.1823 34.1871 68.1823 33.3199C68.1823 31.4699 68.6605 30.0607 69.6169 29.0923C70.5733 28.1239 71.9008 27.6397 73.5995 27.6397C74.3275 27.6397 75.0056 27.7409 75.6336 27.9433C76.276 28.1456 76.8041 28.478 77.2181 28.9405C77.6463 29.403 77.939 30.0101 78.096 30.7616C78.2673 31.5132 78.2601 32.431 78.0746 33.515H71.5012C71.5154 34.6568 71.8009 35.5674 72.3576 36.2467C72.9286 36.926 73.7637 37.2656 74.8628 37.2656C75.3339 37.2656 75.8192 37.1933 76.3188 37.0488C76.8327 36.9043 77.2324 36.7164 77.5179 36.4851L77.9247 36.9187ZM73.5139 28.8755C73.2284 28.8755 72.9714 28.9261 72.743 29.0273C72.5289 29.1284 72.3362 29.3163 72.1649 29.5909C72.0079 29.8511 71.8794 30.2124 71.7795 30.6749C71.6796 31.123 71.6082 31.6939 71.5654 32.3876H75.0127C75.1126 31.2603 75.0484 30.3931 74.82 29.7861C74.5916 29.179 74.1562 28.8755 73.5139 28.8755Z" fill="#FCF5ED"/>
<path d="M85.5925 38.7398H79.6828V37.8943C80.1539 37.6631 80.6249 37.4896 81.096 37.374V24.236L79.4687 24.0626V23.217C79.6543 23.1303 79.9112 23.0436 80.2395 22.9569C80.5678 22.8702 80.9176 22.7979 81.2887 22.7401C81.6741 22.6678 82.0524 22.61 82.4235 22.5667C82.8089 22.5088 83.1515 22.4655 83.4513 22.4366H84.1793V37.374C84.6503 37.4896 85.1214 37.6631 85.5925 37.8943V38.7398Z" fill="#FCF5ED"/>
</svg>
