<svg width="460" height="76" viewBox="0 0 460 76" fill="none" xmlns="http://www.w3.org/2000/svg">
<path d="M31.0341 74.4375H0.458067V70.7135C3.0714 69.2762 5.7174 68.3288 8.39607 67.8715V12.4035C7.0894 12.2075 5.7174 11.8482 4.28007 11.3255C2.84273 10.8028 1.56873 10.2148 0.458067 9.56149V5.8375H31.0341V9.56149C29.8581 10.2802 28.5514 10.9008 27.1141 11.4235C25.7421 11.8808 24.4027 12.2075 23.0961 12.4035V67.8715C24.4027 68.1328 25.7421 68.4922 27.1141 68.9495C28.5514 69.4068 29.8581 69.9948 31.0341 70.7135V74.4375ZM95.917 74.4375H69.947V70.6155C70.7963 70.1582 71.613 69.7662 72.397 69.4395C73.2463 69.0475 74.2263 68.6555 75.337 68.2635V45.2335C75.337 41.1175 74.749 37.9162 73.573 35.6295C72.397 33.2775 70.3063 32.1015 67.301 32.1015C64.8183 32.1015 62.6623 32.9182 60.833 34.5515C59.069 36.1195 57.7296 38.2755 56.815 41.0195V68.2635C57.8603 68.5248 58.775 68.8515 59.559 69.2435C60.4083 69.5702 61.2903 70.0275 62.205 70.6155V74.4375H36.235V70.6155C37.8683 69.7662 40.0243 68.9822 42.703 68.2635V32.3955L36.235 31.6115V27.7895C37.0843 27.3975 38.195 27.0382 39.567 26.7115C40.939 26.3195 42.409 25.9602 43.977 25.6335C45.6103 25.3068 47.2436 25.0455 48.877 24.8495C50.5756 24.5882 52.111 24.3922 53.483 24.2615H56.815V34.3555H56.913C58.285 31.6115 60.343 29.2595 63.087 27.2995C65.831 25.2742 69.163 24.2615 73.083 24.2615C75.631 24.2615 77.9176 24.5882 79.943 25.2415C81.9683 25.8295 83.667 26.9075 85.039 28.4755C86.4763 30.0435 87.5543 32.1668 88.273 34.8455C89.057 37.4588 89.449 40.7908 89.449 44.8415V68.2635C92.0623 68.7208 94.2183 69.5048 95.917 70.6155V74.4375ZM133.505 64.7355C133.179 66.1728 132.591 67.5448 131.741 68.8515C130.892 70.1582 129.879 71.3342 128.703 72.3795C127.527 73.3595 126.188 74.1435 124.685 74.7315C123.183 75.3195 121.582 75.6135 119.883 75.6135C113.415 75.6135 108.483 73.5882 105.085 69.5375C101.753 65.4215 100.087 59.1495 100.087 50.7215C100.087 46.4095 100.675 42.6528 101.851 39.4515C103.027 36.1848 104.661 33.4408 106.751 31.2195C108.907 28.9982 111.488 27.3322 114.493 26.2215C117.499 25.1108 120.831 24.5555 124.489 24.5555C125.665 24.5555 126.645 24.5882 127.429 24.6535C128.279 24.7188 129.03 24.8168 129.683 24.9475C130.402 25.0128 131.055 25.1762 131.643 25.4375C132.297 25.6335 133.015 25.8622 133.799 26.1235V8.8755L126.351 8.0915V4.2695C127.266 3.8775 128.507 3.51816 130.075 3.19149C131.709 2.86483 133.407 2.57083 135.171 2.30949C136.935 1.98283 138.667 1.68883 140.365 1.42749C142.064 1.16616 143.469 0.937498 144.579 0.741497H147.911V67.4795L154.379 68.2635V71.6935C153.465 72.1508 152.289 72.5755 150.851 72.9675C149.414 73.3595 147.911 73.7188 146.343 74.0455C144.775 74.3722 143.24 74.6335 141.737 74.8295C140.3 75.0908 139.091 75.2868 138.111 75.4175H134.779L133.897 64.7355H133.505ZM124.587 67.7735C126.874 67.7735 128.801 67.0548 130.369 65.6175C131.937 64.1802 133.081 61.7302 133.799 58.2675V31.9055C132.95 31.3828 131.872 30.9582 130.565 30.6315C129.324 30.3048 127.756 30.1415 125.861 30.1415C122.072 30.1415 119.361 31.8728 117.727 35.3355C116.094 38.7328 115.277 43.6982 115.277 50.2315C115.277 55.5235 115.996 59.7702 117.433 62.9715C118.871 66.1728 121.255 67.7735 124.587 67.7735ZM158.753 49.9375C158.753 45.9522 159.341 42.3915 160.517 39.2555C161.759 36.0542 163.49 33.3428 165.711 31.1215C167.998 28.9002 170.742 27.2015 173.943 26.0255C177.145 24.8495 180.771 24.2615 184.821 24.2615C189.395 24.2615 193.315 24.9148 196.581 26.2215C199.913 27.4628 202.625 29.2268 204.715 31.5135C206.871 33.7348 208.439 36.4462 209.419 39.6475C210.399 42.7835 210.889 46.2135 210.889 49.9375C210.889 53.9228 210.301 57.5162 209.125 60.7175C207.949 63.8535 206.218 66.5322 203.931 68.7535C201.71 70.9748 198.966 72.6735 195.699 73.8495C192.498 75.0255 188.872 75.6135 184.821 75.6135C180.379 75.6135 176.524 74.9928 173.257 73.7515C169.991 72.4448 167.279 70.6808 165.123 68.4595C162.967 66.1728 161.367 63.4615 160.321 60.3255C159.276 57.1242 158.753 53.6615 158.753 49.9375ZM173.943 49.9375C173.943 52.8775 174.107 55.5888 174.433 58.0715C174.825 60.4888 175.479 62.5468 176.393 64.2455C177.308 65.9442 178.549 67.2835 180.117 68.2635C181.685 69.1782 183.711 69.6355 186.193 69.6355C187.631 69.6355 188.937 69.3088 190.113 68.6555C191.289 67.9368 192.302 66.8262 193.151 65.3235C194.001 63.7555 194.621 61.7302 195.013 59.2475C195.471 56.6995 195.699 53.5962 195.699 49.9375C195.699 46.9322 195.503 44.2208 195.111 41.8035C194.785 39.3862 194.164 37.3282 193.249 35.6295C192.4 33.9308 191.224 32.6242 189.721 31.7095C188.219 30.7295 186.324 30.2395 184.037 30.2395C182.339 30.2395 180.869 30.5988 179.627 31.3175C178.386 31.9708 177.341 33.0815 176.491 34.6495C175.642 36.1522 174.989 38.1775 174.531 40.7255C174.139 43.2082 173.943 46.2788 173.943 49.9375ZM275.839 74.4375H249.869V70.6155C250.718 70.1582 251.535 69.7662 252.319 69.4395C253.168 69.0475 254.148 68.6555 255.259 68.2635V45.2335C255.259 41.1175 254.671 37.9162 253.495 35.6295C252.319 33.2775 250.228 32.1015 247.223 32.1015C244.74 32.1015 242.584 32.9182 240.755 34.5515C238.991 36.1195 237.651 38.2755 236.737 41.0195V68.2635C237.782 68.5248 238.697 68.8515 239.481 69.2435C240.33 69.5702 241.212 70.0275 242.127 70.6155V74.4375H216.157V70.6155C217.79 69.7662 219.946 68.9822 222.625 68.2635V32.3955L216.157 31.6115V27.7895C217.006 27.3975 218.117 27.0382 219.489 26.7115C220.861 26.3195 222.331 25.9602 223.899 25.6335C225.532 25.3068 227.165 25.0455 228.799 24.8495C230.497 24.5882 232.033 24.3922 233.405 24.2615H236.737V34.3555H236.835C238.207 31.6115 240.265 29.2595 243.009 27.2995C245.753 25.2742 249.085 24.2615 253.005 24.2615C255.553 24.2615 257.84 24.5882 259.865 25.2415C261.89 25.8295 263.589 26.9075 264.961 28.4755C266.398 30.0435 267.476 32.1668 268.195 34.8455C268.979 37.4588 269.371 40.7908 269.371 44.8415V68.2635C271.984 68.7208 274.14 69.5048 275.839 70.6155V74.4375ZM324.599 66.2055C324.077 67.3162 323.227 68.4595 322.051 69.6355C320.941 70.7462 319.536 71.7588 317.837 72.6735C316.204 73.5228 314.277 74.2088 312.055 74.7315C309.899 75.3195 307.547 75.6135 304.999 75.6135C300.949 75.6135 297.355 75.0255 294.219 73.8495C291.083 72.6082 288.47 70.8768 286.379 68.6555C284.289 66.3688 282.688 63.6575 281.577 60.5215C280.532 57.3855 280.009 53.8575 280.009 49.9375C280.009 41.5748 282.198 35.2048 286.575 30.8275C290.953 26.4502 297.029 24.2615 304.803 24.2615C308.135 24.2615 311.239 24.7188 314.113 25.6335C317.053 26.5482 319.471 28.0508 321.365 30.1415C323.325 32.2322 324.665 34.9762 325.383 38.3735C326.167 41.7708 326.135 45.9195 325.285 50.8195H295.199C295.265 55.9808 296.571 60.0968 299.119 63.1675C301.733 66.2382 305.555 67.7735 310.585 67.7735C312.741 67.7735 314.963 67.4468 317.249 66.7935C319.601 66.1402 321.431 65.2908 322.737 64.2455L324.599 66.2055ZM304.411 29.8475C303.105 29.8475 301.929 30.0762 300.883 30.5335C299.903 30.9908 299.021 31.8402 298.237 33.0815C297.519 34.2575 296.931 35.8908 296.473 37.9815C296.016 40.0068 295.689 42.5875 295.493 45.7235H311.271C311.729 40.6275 311.435 36.7075 310.389 33.9635C309.344 31.2195 307.351 29.8475 304.411 29.8475ZM357.832 63.7555C357.832 62.0568 357.211 60.5868 355.97 59.3455C354.794 58.1042 353.291 56.9608 351.462 55.9155C349.698 54.8702 347.738 53.8248 345.582 52.7795C343.491 51.7342 341.531 50.5255 339.702 49.1535C337.938 47.7162 336.435 46.0502 335.194 44.1555C334.018 42.2608 333.43 39.9415 333.43 37.1975C333.43 35.2375 333.887 33.4735 334.802 31.9055C335.717 30.2722 336.958 28.9002 338.526 27.7895C340.094 26.6788 341.956 25.8295 344.112 25.2415C346.333 24.5882 348.718 24.2615 351.266 24.2615C354.794 24.2615 358.061 24.5555 361.066 25.1435C364.137 25.6662 366.815 26.4175 369.102 27.3975C368.841 29.4882 368.318 31.7422 367.534 34.1595C366.75 36.5115 365.999 38.6675 365.28 40.6275H361.948L357.832 30.6315C357.048 30.3048 356.231 30.1088 355.382 30.0435C354.533 29.9128 353.585 29.8475 352.54 29.8475C350.58 29.8475 349.077 30.4355 348.032 31.6115C347.052 32.7222 346.562 33.9962 346.562 35.4335C346.562 37.0668 347.15 38.5042 348.326 39.7455C349.567 40.9215 351.07 42.0322 352.834 43.0775C354.663 44.1228 356.623 45.1682 358.714 46.2135C360.87 47.2588 362.83 48.4675 364.594 49.8395C366.423 51.1462 367.926 52.7142 369.102 54.5435C370.343 56.3728 370.964 58.5615 370.964 61.1095C370.964 65.6175 369.135 69.1782 365.476 71.7915C361.817 74.3395 356.917 75.6135 350.776 75.6135C347.64 75.6135 344.406 75.2868 341.074 74.6335C337.742 73.9802 334.867 73.0655 332.45 71.8895C332.581 69.5375 333.136 67.1528 334.116 64.7355C335.096 62.3182 336.141 60.1622 337.252 58.2675H340.584L345.386 68.9495C346.105 69.4722 346.889 69.7988 347.738 69.9295C348.653 69.9948 349.502 70.0275 350.286 70.0275C352.181 70.0275 353.912 69.4722 355.48 68.3615C357.048 67.2508 357.832 65.7155 357.832 63.7555ZM404.004 74.4375H376.956V70.6155C377.936 70.0928 378.949 69.6682 379.994 69.3415C381.04 68.9495 382.183 68.5902 383.424 68.2635V32.3955L376.956 31.6115V27.7895C377.936 27.3975 379.145 27.0055 380.582 26.6135C382.085 26.2215 383.653 25.8948 385.286 25.6335C386.92 25.3068 388.52 25.0455 390.088 24.8495C391.656 24.5882 393.028 24.3922 394.204 24.2615H397.536V68.2635C398.843 68.5902 400.019 68.9495 401.064 69.3415C402.11 69.6682 403.09 70.0928 404.004 70.6155V74.4375ZM381.758 9.3655C381.758 7.07883 382.542 5.28216 384.11 3.9755C385.678 2.66883 387.704 2.0155 390.186 2.0155C392.669 2.0155 394.694 2.66883 396.262 3.9755C397.83 5.28216 398.614 7.07883 398.614 9.3655C398.614 11.5868 397.83 13.3508 396.262 14.6575C394.694 15.9642 392.669 16.6175 390.186 16.6175C387.704 16.6175 385.678 15.9642 384.11 14.6575C382.542 13.3508 381.758 11.5868 381.758 9.3655ZM452.518 60.2275C452.518 61.6648 452.518 62.9062 452.518 63.9515C452.583 64.9968 452.681 66.1075 452.812 67.2835L459.574 68.2635V71.6935C458.79 72.0855 457.712 72.4775 456.34 72.8695C455.033 73.2615 453.628 73.6535 452.126 74.0455C450.688 74.3722 449.251 74.6335 447.814 74.8295C446.376 75.0908 445.102 75.2868 443.992 75.4175H440.66C440.006 73.9148 439.614 72.4122 439.484 70.9095C439.353 69.4068 439.255 67.5775 439.19 65.4215H438.7C438.373 66.7282 437.818 68.0022 437.034 69.2435C436.25 70.4195 435.237 71.4975 433.996 72.4775C432.82 73.3922 431.415 74.1435 429.782 74.7315C428.148 75.3195 426.319 75.6135 424.294 75.6135C422.138 75.6135 420.145 75.2868 418.316 74.6335C416.486 73.9802 414.886 73.0655 413.514 71.8895C412.142 70.7135 411.064 69.3088 410.28 67.6755C409.496 65.9768 409.104 64.0822 409.104 61.9915C409.104 59.0515 409.659 56.6342 410.77 54.7395C411.88 52.8448 413.612 51.3095 415.964 50.1335C418.381 48.8922 421.452 47.9775 425.176 47.3895C428.965 46.8015 433.538 46.3768 438.896 46.1155C439.418 40.4968 439.19 36.3808 438.21 33.7675C437.23 31.1542 435.106 29.8475 431.84 29.8475C429.814 29.8475 427.952 30.1742 426.254 30.8275L421.648 42.5875H417.336C416.813 41.8035 416.29 40.9215 415.768 39.9415C415.31 38.8962 414.853 37.8182 414.396 36.7075C414.004 35.5315 413.644 34.3555 413.318 33.1795C413.056 32.0035 412.86 30.8602 412.73 29.7495C415.212 28.0508 418.414 26.7115 422.334 25.7315C426.254 24.7515 430.402 24.2615 434.78 24.2615C438.504 24.2615 441.542 24.6862 443.894 25.5355C446.246 26.3195 448.075 27.4302 449.382 28.8675C450.754 30.2395 451.701 31.8728 452.224 33.7675C452.746 35.6622 453.008 37.6875 453.008 39.8435C453.008 43.7635 452.91 47.3242 452.714 50.5255C452.583 53.6615 452.518 56.8955 452.518 60.2275ZM430.468 67.7735C431.84 67.7735 433.016 67.5122 433.996 66.9895C434.976 66.4668 435.792 65.8462 436.446 65.1275C437.164 64.4088 437.687 63.6248 438.014 62.7755C438.406 61.9262 438.7 61.1748 438.896 60.5215V50.7215C435.825 50.7868 433.31 50.9828 431.35 51.3095C429.39 51.6362 427.854 52.1915 426.744 52.9755C425.633 53.6942 424.849 54.6415 424.392 55.8175C424 56.9282 423.804 58.3002 423.804 59.9335C423.804 62.4162 424.392 64.3435 425.568 65.7155C426.744 67.0875 428.377 67.7735 430.468 67.7735Z" fill="#F8EEE4"/>
</svg>
