<svg width="512" height="215" viewBox="0 0 512 215" fill="none" xmlns="http://www.w3.org/2000/svg">
<path opacity="0.4" d="M0.189844 210.812V200.172C3.73651 198.119 7.46984 196.346 11.3898 194.852C15.4965 193.359 19.4165 192.426 23.1498 192.052V33.5725C19.4165 32.8258 15.4965 31.7992 11.3898 30.4925C7.28318 28.9992 3.54984 27.3192 0.189844 25.4525V14.8125H45.2698C52.3632 14.8125 59.0832 14.5325 65.4298 13.9725C71.7765 13.4125 79.0565 13.1325 87.2699 13.1325C96.2298 13.1325 104.91 13.7858 113.31 15.0925C121.71 16.3992 129.177 18.7325 135.71 22.0925C142.243 25.4525 147.47 30.2125 151.39 36.3725C155.31 42.3458 157.27 50.0925 157.27 59.6125C157.27 65.5858 156.15 71.1858 153.91 76.4125C151.857 81.4525 148.87 85.9325 144.95 89.8525C141.217 93.7725 136.737 97.0392 131.51 99.6525C126.47 102.266 120.963 104.132 114.99 105.252V106.372C120.963 107.119 126.937 108.519 132.91 110.572C139.07 112.626 144.577 115.612 149.43 119.532C154.283 123.452 158.203 128.399 161.19 134.372C164.363 140.159 165.95 147.066 165.95 155.092C165.95 165.172 163.71 173.852 159.23 181.132C154.75 188.412 148.683 194.386 141.03 199.052C133.563 203.719 124.977 207.172 115.27 209.412C105.563 211.466 95.4832 212.493 85.0298 212.493C81.1098 212.493 76.8165 212.399 72.1498 212.213C67.4832 212.026 62.8165 211.839 58.1498 211.653C53.4832 211.466 48.9098 211.279 44.4298 211.093C40.1365 210.906 36.4965 210.812 33.5098 210.812H0.189844ZM84.7499 194.292C96.5099 194.292 105.75 190.839 112.47 183.932C119.19 176.839 122.55 167.506 122.55 155.932C122.55 148.839 121.43 143.052 119.19 138.572C116.95 133.906 113.87 130.266 109.95 127.652C106.03 124.852 101.363 122.986 95.9498 122.052C90.5365 120.932 84.6565 120.372 78.3099 120.372H63.4698V192.333C66.0832 192.892 68.7898 193.359 71.5898 193.732C74.5765 194.106 78.9632 194.292 84.7499 194.292ZM72.4299 102.172C75.6032 102.172 78.7765 102.079 81.9498 101.892C85.1232 101.519 88.1098 101.146 90.9098 100.772C98.1898 97.7858 104.07 93.2125 108.55 87.0525C113.03 80.7058 115.27 73.5192 115.27 65.4925C115.27 53.7325 112.19 45.1458 106.03 39.7325C99.8698 34.1325 91.9365 31.3325 82.2299 31.3325C78.1232 31.3325 74.5765 31.4258 71.5898 31.6125C68.6032 31.7992 65.8965 32.0792 63.4698 32.4525V102.172H72.4299ZM308.026 170.212C308.026 174.319 308.026 177.866 308.026 180.852C308.212 183.839 308.492 187.012 308.866 190.372L328.186 193.172V202.972C325.946 204.092 322.866 205.212 318.946 206.332C315.212 207.452 311.199 208.572 306.906 209.692C302.799 210.626 298.692 211.373 294.586 211.933C290.479 212.679 286.839 213.239 283.666 213.613H274.146C272.279 209.319 271.159 205.026 270.786 200.732C270.412 196.439 270.132 191.212 269.946 185.052H268.546C267.612 188.786 266.026 192.426 263.786 195.972C261.546 199.332 258.652 202.412 255.106 205.212C251.746 207.826 247.732 209.972 243.066 211.653C238.399 213.333 233.172 214.173 227.386 214.173C221.226 214.173 215.532 213.239 210.306 211.373C205.079 209.506 200.506 206.892 196.586 203.532C192.666 200.172 189.586 196.159 187.346 191.492C185.106 186.639 183.986 181.226 183.986 175.252C183.986 166.852 185.572 159.946 188.746 154.532C191.919 149.119 196.866 144.732 203.586 141.372C210.492 137.826 219.266 135.212 229.906 133.532C240.732 131.852 253.799 130.639 269.106 129.892C270.599 113.839 269.946 102.079 267.146 94.6125C264.346 87.1458 258.279 83.4125 248.946 83.4125C243.159 83.4125 237.839 84.3458 232.986 86.2125L219.826 119.812H207.506C206.012 117.572 204.519 115.052 203.026 112.252C201.719 109.266 200.412 106.186 199.106 103.012C197.986 99.6525 196.959 96.2925 196.026 92.9325C195.279 89.5725 194.719 86.3058 194.346 83.1325C201.439 78.2792 210.586 74.4525 221.786 71.6525C232.986 68.8525 244.839 67.4525 257.346 67.4525C267.986 67.4525 276.666 68.6658 283.386 71.0925C290.106 73.3325 295.332 76.5058 299.066 80.6125C302.986 84.5325 305.692 89.1992 307.186 94.6125C308.679 100.026 309.426 105.812 309.426 111.972C309.426 123.172 309.146 133.346 308.586 142.492C308.212 151.452 308.026 160.692 308.026 170.212ZM245.026 191.772C248.946 191.772 252.306 191.026 255.106 189.532C257.906 188.039 260.239 186.266 262.106 184.212C264.159 182.159 265.652 179.919 266.586 177.492C267.706 175.066 268.546 172.919 269.106 171.052V143.052C260.332 143.239 253.146 143.799 247.546 144.732C241.946 145.666 237.559 147.252 234.386 149.492C231.212 151.546 228.972 154.252 227.666 157.612C226.546 160.786 225.986 164.706 225.986 169.372C225.986 176.466 227.666 181.972 231.026 185.892C234.386 189.812 239.052 191.772 245.026 191.772ZM418.245 210.812H340.965V199.892C347.125 196.906 353.285 194.666 359.445 193.172V23.4925L338.165 21.2525V10.3325C340.592 9.21249 343.952 8.09248 348.245 6.97249C352.538 5.85249 357.112 4.91916 361.965 4.17249C367.005 3.23916 371.952 2.49249 376.805 1.93249C381.845 1.18582 386.325 0.625819 390.245 0.252491H399.765V193.172C405.925 194.666 412.085 196.906 418.245 199.892V210.812ZM511.214 210.812H433.934V199.892C436.734 198.399 439.627 197.186 442.614 196.252C445.601 195.132 448.867 194.106 452.414 193.172V90.6925L433.934 88.4525V77.5325C436.734 76.4125 440.187 75.2925 444.294 74.1725C448.587 73.0525 453.067 72.1192 457.734 71.3725C462.401 70.4392 466.974 69.6925 471.454 69.1325C475.934 68.3858 479.854 67.8258 483.214 67.4525H492.734V193.172C496.467 194.106 499.827 195.132 502.814 196.252C505.801 197.186 508.601 198.399 511.214 199.892V210.812ZM447.654 24.8925C447.654 18.3592 449.894 13.2258 454.374 9.49249C458.854 5.75916 464.641 3.89249 471.734 3.89249C478.827 3.89249 484.614 5.75916 489.094 9.49249C493.574 13.2258 495.814 18.3592 495.814 24.8925C495.814 31.2392 493.574 36.2792 489.094 40.0125C484.614 43.7458 478.827 45.6125 471.734 45.6125C464.641 45.6125 458.854 43.7458 454.374 40.0125C449.894 36.2792 447.654 31.2392 447.654 24.8925Z" fill="#F8EEE4"/>
</svg>
